# xmcd
#
# Track frame offsets: 
#        150
#        12811
#        25496
#        38966
#        46698
#        60781
#        72290
#        84634
#        97127
#        109760
#        123755
#        137884
#        150866
#        163620
#        177552
#        199270
#        212863
#        225855
#        241069
#        255641
#        269625
#        282979
#        295960
#        310131
#        324554
#
# Disc length: 4547 seconds
#
# Revision: 0
# Processed by: cddbd v1.5.2PL0 Copyright (c) Steve Scherf et al.
# Submitted via: ExactAudioCopy v1.0b3
#
DISCID=5e11c119
DTITLE=Various Artist - Definitive Delta Blues [CD1]
DYEAR=2012
DGENRE=Blues
TTITLE0=Elmore James - Standing At The Crossroads
TTITLE1=Bukka White - Fixin' To Die
TTITLE2=Robert Johnson - I Believe I'll Dust My Broom
TTITLE3=Big Joe Williams - Baby Please Don't Go
TTITLE4=Charley Patton - Spoonful Blues
TTITLE5=David 'Honeyboy' Edwards - Who May Your Regular Be
TTITLE6=Big Bill Broonzy - Mississippi River Blues
TTITLE7=John Lee Hooker - Miss Sadie Mae
TTITLE8=Tommy McClennan - Bottle It Up And Go
TTITLE9=Muddy Waters - I Be's Troubled
TTITLE10=Blind Willie McTell - Stomp Down Rider
TTITLE11=Mississippi John Hurt - Blue Harvest Blues
TTITLE12=Willie 'Poor Boy' Lofton - Dirty Mistreater
TTITLE13=Robert Lockwood Jr - Little Boy Sue
TTITLE14=Willie Brown - Ragged And Dirty
TTITLE15=Skip James - Devil Got My Woman
TTITLE16=Bobo Thomas - Catfish Blues
TTITLE17=Arthur 'Big Boy' Crudup - Black Pony Blues
TTITLE18=Lucious Curtis - Lonesome Highway Blues
TTITLE19=Son House - Special Rider Blues
TTITLE20=Charley Patton - 34 Blues
TTITLE21=Robert Petway - Bertha Lee Blues
TTITLE22=Tony Hollins - Crawlin' King Snake
TTITLE23=Kansas Joe McCoy - When The Leevee Breaks
TTITLE24=Tommy Johnson - Canned Heat Blues
EXTD=
EXTT0=
EXTT1=
EXTT2=
EXTT3=
EXTT4=
EXTT5=
EXTT6=
EXTT7=
EXTT8=
EXTT9=
EXTT10=
EXTT11=
EXTT12=
EXTT13=
EXTT14=
EXTT15=
EXTT16=
EXTT17=
EXTT18=
EXTT19=
EXTT20=
EXTT21=
EXTT22=
EXTT23=
EXTT24=
PLAYORDER=
